<svg id="svg" xmlns="http://www.w3.org/2000/svg" xmlns:xlink="http://www.w3.org/1999/xlink" width="400" height="327.66884531590415" viewBox="0, 0, 400,327.66884531590415"><g id="svgg"><path id="path0" d="M329.412 27.669 L 329.412 28.758 322.440 28.758 L 315.468 28.758 315.468 29.847 C 315.468 30.710,315.248 30.937,314.410 30.937 C 313.455 30.937,313.323 31.169,313.053 33.333 C 312.784 35.485,312.647 35.730,311.714 35.730 C 310.758 35.730,310.675 35.903,310.675 37.908 C 310.675 39.942,310.603 40.087,309.586 40.087 C 308.715 40.087,308.497 39.869,308.497 38.998 C 308.497 38.126,308.279 37.908,307.407 37.908 C 306.536 37.908,306.318 37.691,306.318 36.819 C 306.318 35.789,306.187 35.730,303.922 35.730 C 301.656 35.730,301.525 35.670,301.525 34.641 C 301.525 33.569,301.467 33.551,298.039 33.551 C 294.611 33.551,294.553 33.569,294.553 34.641 C 294.553 35.655,294.406 35.730,292.406 35.730 L 290.259 35.730 289.959 38.126 C 289.691 40.278,289.554 40.523,288.621 40.523 L 287.582 40.523 287.586 48.039 C 287.592 57.070,287.813 58.824,288.946 58.824 C 289.673 58.824,289.760 59.194,289.760 62.268 L 289.760 65.713 287.582 66.013 C 285.834 66.253,285.403 66.477,285.403 67.143 C 285.403 67.829,285.080 67.975,283.551 67.979 C 279.843 67.988,278.431 68.423,278.431 69.556 C 278.431 70.517,278.265 70.588,276.035 70.588 C 273.769 70.588,273.638 70.648,273.638 71.678 C 273.638 72.674,273.475 72.767,271.732 72.767 C 268.676 72.767,267.102 73.213,267.102 74.078 C 267.102 74.680,266.592 74.909,264.733 75.141 C 262.738 75.390,262.341 75.588,262.227 76.390 C 261.981 78.121,245.752 78.018,245.752 76.285 C 245.752 75.046,242.278 74.945,199.607 74.948 C 156.880 74.951,152.941 75.062,152.941 76.260 C 152.941 77.213,151.047 77.549,145.643 77.555 C 141.635 77.560,141.612 77.566,141.612 78.649 C 141.612 79.726,141.569 79.739,137.908 79.739 C 134.248 79.739,134.205 79.751,134.205 80.828 C 134.205 81.795,134.022 81.918,132.571 81.922 C 129.079 81.932,127.669 82.386,127.669 83.499 C 127.669 84.460,127.503 84.532,125.272 84.532 C 123.007 84.532,122.876 84.591,122.876 85.621 C 122.876 86.541,122.672 86.710,121.569 86.710 C 120.465 86.710,120.261 86.880,120.261 87.800 C 120.261 88.816,120.116 88.889,118.083 88.889 C 115.953 88.889,115.904 88.918,115.904 90.196 C 115.904 91.300,115.735 91.503,114.815 91.503 C 113.943 91.503,113.725 91.721,113.725 92.593 C 113.725 93.512,113.522 93.682,112.418 93.682 C 111.314 93.682,111.111 93.851,111.111 94.771 C 111.111 95.643,110.893 95.861,110.022 95.861 C 109.150 95.861,108.932 96.078,108.932 96.950 C 108.932 97.821,108.715 98.039,107.843 98.039 C 106.923 98.039,106.754 98.243,106.754 99.346 C 106.754 100.508,106.609 100.654,105.447 100.654 C 104.343 100.654,104.139 100.823,104.139 101.743 C 104.139 102.614,103.922 102.832,103.050 102.832 C 102.130 102.832,101.961 103.036,101.961 104.139 C 101.961 105.243,101.791 105.447,100.871 105.447 C 100.000 105.447,99.782 105.664,99.782 106.536 C 99.782 107.399,99.562 107.625,98.724 107.625 C 97.769 107.625,97.637 107.857,97.367 110.022 C 97.098 112.173,96.961 112.418,96.028 112.418 C 95.072 112.418,94.989 112.592,94.989 114.597 C 94.989 116.618,94.912 116.776,93.923 116.776 C 92.943 116.776,92.845 116.962,92.724 119.063 C 92.611 121.035,92.461 121.369,91.640 121.486 C 90.839 121.600,90.641 121.998,90.392 123.992 C 90.126 126.116,89.988 126.362,89.057 126.362 C 88.054 126.362,88.017 126.476,88.017 129.630 C 88.017 132.825,87.993 132.898,86.928 132.898 C 86.008 132.898,85.839 133.101,85.839 134.205 C 85.839 135.309,85.669 135.512,84.749 135.512 C 83.886 135.512,83.660 135.732,83.660 136.572 C 83.660 137.405,83.403 137.662,82.462 137.771 C 81.365 137.897,81.252 138.083,81.131 139.978 C 81.011 141.847,80.894 142.048,79.933 142.048 C 79.039 142.048,78.867 142.259,78.867 143.355 C 78.867 144.449,78.694 144.662,77.809 144.662 C 76.854 144.662,76.722 144.894,76.452 147.059 C 76.183 149.210,76.046 149.455,75.113 149.455 C 74.295 149.455,74.074 149.687,74.074 150.545 C 74.074 151.416,73.856 151.634,72.985 151.634 C 71.955 151.634,71.895 151.765,71.895 154.031 C 71.895 156.296,71.836 156.427,70.806 156.427 C 69.935 156.427,69.717 156.645,69.717 157.516 C 69.717 158.436,69.513 158.606,68.410 158.606 C 67.116 158.606,67.102 158.630,67.102 161.002 C 67.102 163.268,67.043 163.399,66.013 163.399 C 65.142 163.399,64.924 163.617,64.924 164.488 C 64.924 165.348,64.703 165.577,63.875 165.577 C 62.949 165.577,62.792 165.829,62.531 167.731 C 62.288 169.493,62.064 169.908,61.292 170.018 C 60.629 170.113,60.308 170.509,60.211 171.351 C 60.102 172.292,59.845 172.549,59.012 172.549 C 58.172 172.549,57.952 172.775,57.952 173.638 C 57.952 174.510,57.734 174.728,56.863 174.728 C 55.943 174.728,55.773 174.931,55.773 176.035 C 55.773 177.125,55.599 177.342,54.725 177.342 C 53.797 177.342,53.642 177.593,53.377 179.521 C 53.112 181.448,52.957 181.699,52.029 181.699 C 51.048 181.699,50.980 181.855,50.980 184.096 C 50.980 186.362,50.921 186.492,49.891 186.492 C 49.028 186.492,48.802 186.712,48.802 187.553 C 48.802 188.386,48.545 188.643,47.603 188.751 C 46.486 188.880,46.396 189.043,46.274 191.176 C 46.153 193.277,46.055 193.464,45.075 193.464 C 44.228 193.464,44.009 193.688,44.009 194.553 C 44.009 195.425,43.791 195.643,42.919 195.643 C 41.889 195.643,41.830 195.773,41.830 198.039 C 41.830 200.412,41.817 200.436,40.523 200.436 C 39.245 200.436,39.216 200.484,39.216 202.614 C 39.216 204.648,39.143 204.793,38.126 204.793 C 37.096 204.793,37.037 204.924,37.037 207.190 C 37.037 209.438,36.971 209.586,35.977 209.586 C 35.144 209.586,34.887 209.843,34.778 210.784 C 34.681 211.630,34.361 212.022,33.688 212.118 C 32.887 212.232,32.689 212.629,32.440 214.624 C 32.174 216.748,32.036 216.993,31.104 216.993 C 30.102 216.993,30.065 217.108,30.065 220.261 C 30.065 223.457,30.041 223.529,28.976 223.529 C 27.986 223.529,27.886 223.698,27.882 225.381 C 27.873 228.678,27.410 230.501,26.580 230.501 C 25.662 230.501,25.284 232.364,25.277 236.928 C 25.273 239.725,25.179 240.087,24.455 240.087 C 23.349 240.087,23.094 241.607,23.094 248.203 L 23.094 253.595 22.004 253.595 L 20.915 253.595 20.912 269.826 C 20.909 289.503,20.690 293.246,19.543 293.246 C 18.825 293.246,18.736 293.630,18.736 296.732 C 18.736 299.870,18.819 300.218,19.567 300.218 C 20.232 300.218,20.457 300.647,20.693 302.370 L 20.989 304.522 23.313 304.812 C 24.591 304.972,26.633 304.965,27.851 304.798 L 30.065 304.493 30.065 302.356 C 30.065 300.366,30.141 300.218,31.155 300.218 L 32.244 300.218 32.244 291.792 C 32.244 287.158,32.374 277.746,32.532 270.877 L 32.820 258.388 33.839 258.388 C 34.857 258.388,34.858 258.382,34.858 252.505 L 34.858 246.623 35.948 246.623 L 37.037 246.623 37.037 240.959 L 37.037 235.294 38.126 235.294 C 39.072 235.294,39.216 235.101,39.216 233.830 C 39.216 230.325,39.729 228.373,40.688 228.236 C 41.526 228.117,41.624 227.789,41.739 224.728 C 41.862 221.466,41.903 221.351,42.938 221.351 C 43.932 221.351,44.009 221.196,44.009 219.172 C 44.009 217.154,44.087 216.993,45.070 216.993 C 45.950 216.993,46.156 216.750,46.269 215.577 C 46.373 214.497,46.635 214.129,47.374 214.023 C 48.179 213.909,48.392 213.520,48.629 211.736 C 48.880 209.845,49.038 209.586,49.947 209.586 C 50.897 209.586,50.980 209.409,50.980 207.407 C 50.980 205.402,51.063 205.229,52.020 205.229 C 52.952 205.229,53.089 204.983,53.358 202.832 C 53.629 200.668,53.760 200.436,54.715 200.436 C 55.600 200.436,55.773 200.222,55.773 199.129 C 55.773 198.025,55.943 197.821,56.863 197.821 C 57.879 197.821,57.952 197.676,57.952 195.643 C 57.952 193.625,58.030 193.464,59.012 193.464 C 59.845 193.464,60.102 193.207,60.211 192.266 C 60.309 191.413,60.628 191.028,61.318 190.930 C 62.122 190.815,62.335 190.427,62.572 188.642 C 62.823 186.751,62.982 186.492,63.891 186.492 C 64.702 186.492,64.924 186.259,64.924 185.403 C 64.924 184.532,65.142 184.314,66.013 184.314 C 66.933 184.314,67.102 184.110,67.102 183.007 C 67.102 181.916,67.276 181.699,68.151 181.699 C 69.079 181.699,69.234 181.448,69.499 179.521 C 69.764 177.593,69.919 177.342,70.847 177.342 C 71.721 177.342,71.895 177.125,71.895 176.035 C 71.895 174.945,72.069 174.728,72.944 174.728 C 73.872 174.728,74.027 174.477,74.292 172.549 C 74.557 170.621,74.712 170.370,75.640 170.370 C 76.514 170.370,76.688 170.153,76.688 169.063 C 76.688 167.959,76.858 167.756,77.778 167.756 C 78.794 167.756,78.867 167.611,78.867 165.577 C 78.867 163.560,78.946 163.399,79.927 163.399 C 80.760 163.399,81.017 163.142,81.126 162.200 C 81.224 161.347,81.543 160.963,82.233 160.864 C 83.037 160.750,83.251 160.361,83.487 158.577 C 83.738 156.686,83.897 156.427,84.806 156.427 C 85.663 156.427,85.839 156.205,85.839 155.120 C 85.839 154.016,86.008 153.813,86.928 153.813 C 87.943 153.813,88.017 153.665,88.017 151.663 C 88.017 149.642,88.089 149.505,89.216 149.375 C 90.157 149.267,90.444 148.980,90.552 148.039 C 90.660 147.098,90.917 146.841,91.750 146.841 C 92.591 146.841,92.810 146.615,92.810 145.752 C 92.810 144.880,93.028 144.662,93.900 144.662 C 94.771 144.662,94.989 144.444,94.989 143.573 C 94.989 142.710,95.209 142.484,96.047 142.484 C 97.003 142.484,97.134 142.252,97.404 140.087 C 97.673 137.936,97.810 137.691,98.743 137.691 C 99.751 137.691,99.782 137.588,99.782 134.205 C 99.782 130.797,99.806 130.719,100.849 130.719 C 101.828 130.719,101.926 130.532,102.047 128.431 C 102.160 126.467,102.312 126.125,103.122 126.009 C 103.894 125.899,104.118 125.485,104.361 123.722 C 104.622 121.820,104.779 121.569,105.705 121.569 C 106.673 121.569,106.754 121.401,106.754 119.390 C 106.754 117.357,106.826 117.211,107.843 117.211 C 108.763 117.211,108.932 117.008,108.932 115.904 C 108.932 114.814,109.106 114.597,109.981 114.597 C 110.909 114.597,111.064 114.346,111.329 112.418 C 111.594 110.491,111.749 110.240,112.677 110.240 C 113.551 110.240,113.725 110.023,113.725 108.932 C 113.725 107.829,113.895 107.625,114.815 107.625 C 115.678 107.625,115.904 107.405,115.904 106.565 C 115.904 105.732,116.161 105.475,117.102 105.367 C 118.044 105.258,118.330 104.972,118.439 104.031 C 118.547 103.089,118.804 102.832,119.637 102.832 C 120.477 102.832,120.697 102.606,120.697 101.743 C 120.697 100.726,120.842 100.654,122.876 100.654 C 124.909 100.654,125.054 100.581,125.054 99.564 C 125.054 98.644,125.258 98.475,126.362 98.475 C 127.455 98.475,127.669 98.302,127.669 97.417 C 127.669 96.461,127.901 96.330,130.065 96.060 C 132.217 95.791,132.462 95.654,132.462 94.721 C 132.462 93.718,132.577 93.682,135.730 93.682 C 138.911 93.682,138.998 93.653,138.998 92.610 C 138.998 91.569,139.099 91.535,142.593 91.412 C 145.869 91.297,146.199 91.204,146.318 90.367 C 146.471 89.299,149.593 88.889,157.582 88.889 L 162.092 88.889 162.092 87.797 L 162.092 86.706 200.545 86.817 L 238.998 86.928 239.137 87.908 C 239.267 88.821,239.493 88.889,242.405 88.892 C 248.907 88.897,252.723 89.385,252.723 90.211 C 252.723 90.775,253.225 91.044,254.683 91.262 C 256.897 91.594,257.516 91.367,257.516 90.222 C 257.516 89.525,258.070 89.391,262.092 89.117 C 266.546 88.813,266.667 88.777,266.667 87.758 C 266.667 86.779,266.823 86.710,269.063 86.710 C 271.329 86.710,271.460 86.651,271.460 85.621 C 271.460 84.625,271.623 84.532,273.366 84.532 C 276.433 84.532,277.996 84.086,277.996 83.213 C 277.996 82.591,278.509 82.379,280.610 82.135 C 282.995 81.858,283.224 81.740,283.224 80.785 C 283.224 79.767,283.320 79.739,286.710 79.739 C 290.138 79.739,290.196 79.720,290.196 78.649 C 290.196 77.633,290.341 77.560,292.375 77.560 C 294.408 77.560,294.553 77.633,294.553 78.649 C 294.553 79.521,294.771 79.739,295.643 79.739 C 296.514 79.739,296.732 79.956,296.732 80.828 C 296.732 81.692,296.952 81.917,297.796 81.917 C 299.218 81.917,299.454 82.427,299.106 84.751 C 298.852 86.443,298.670 86.710,297.772 86.710 C 296.953 86.710,296.732 86.942,296.732 87.800 C 296.732 88.814,296.585 88.889,294.582 88.889 C 292.561 88.889,292.424 88.961,292.295 90.087 C 292.186 91.028,291.900 91.315,290.959 91.423 C 290.017 91.532,289.760 91.789,289.760 92.622 C 289.760 93.604,289.599 93.682,287.582 93.682 C 285.576 93.682,285.403 93.765,285.403 94.721 C 285.403 95.654,285.158 95.791,283.007 96.060 C 280.842 96.330,280.610 96.461,280.610 97.417 C 280.610 98.396,280.448 98.475,278.431 98.475 C 276.398 98.475,276.253 98.548,276.253 99.564 C 276.253 100.484,276.049 100.654,274.946 100.654 C 273.849 100.654,273.638 100.826,273.638 101.720 C 273.638 102.700,273.451 102.797,271.351 102.918 C 269.217 103.041,269.054 103.131,268.925 104.248 C 268.817 105.190,268.560 105.447,267.727 105.447 C 266.886 105.447,266.667 105.672,266.667 106.536 C 266.667 107.566,266.536 107.625,264.270 107.625 C 262.029 107.625,261.874 107.693,261.874 108.674 C 261.874 109.601,261.623 109.757,259.695 110.022 C 257.767 110.287,257.516 110.442,257.516 111.370 C 257.516 112.198,257.287 112.418,256.427 112.418 C 255.556 112.418,255.338 112.636,255.338 113.508 C 255.338 114.427,255.134 114.597,254.031 114.597 C 252.927 114.597,252.723 114.766,252.723 115.686 C 252.723 116.558,252.505 116.776,251.634 116.776 C 250.714 116.776,250.545 116.979,250.545 118.083 C 250.545 119.173,250.371 119.390,249.496 119.390 C 248.569 119.390,248.413 119.641,248.148 121.569 C 247.883 123.496,247.728 123.747,246.800 123.747 C 245.926 123.747,245.752 123.964,245.752 125.054 C 245.752 126.158,245.582 126.362,244.662 126.362 C 243.646 126.362,243.573 126.507,243.573 128.540 L 243.573 130.719 240.087 130.719 C 236.704 130.719,236.601 130.750,236.601 131.758 C 236.601 132.691,236.356 132.828,234.205 133.097 C 232.300 133.335,231.808 133.557,231.808 134.179 C 231.808 135.019,230.039 135.498,226.906 135.507 C 225.455 135.511,225.272 135.634,225.272 136.601 C 225.272 137.521,225.069 137.691,223.965 137.691 C 222.878 137.691,222.658 137.866,222.658 138.730 C 222.658 139.663,222.413 139.800,220.261 140.068 C 218.097 140.339,217.865 140.470,217.865 141.426 C 217.865 142.264,217.638 142.484,216.776 142.484 L 215.686 142.484 215.686 147.059 L 215.686 151.634 221.351 151.634 L 227.015 151.634 227.015 150.545 C 227.015 149.625,227.219 149.455,228.322 149.455 C 229.426 149.455,229.630 149.286,229.630 148.366 C 229.630 147.349,229.775 147.277,231.808 147.277 C 233.842 147.277,233.987 147.349,233.987 148.366 C 233.987 149.237,233.769 149.455,232.898 149.455 C 231.881 149.455,231.808 149.601,231.808 151.634 C 231.808 153.667,231.736 153.813,230.719 153.813 C 229.799 153.813,229.630 154.016,229.630 155.120 C 229.630 156.224,229.460 156.427,228.540 156.427 C 227.669 156.427,227.451 156.645,227.451 157.516 C 227.451 158.436,227.248 158.606,226.144 158.606 C 225.054 158.606,224.837 158.780,224.837 159.654 C 224.837 160.582,224.586 160.737,222.658 161.002 C 220.730 161.267,220.479 161.423,220.479 162.350 C 220.479 163.225,220.262 163.399,219.172 163.399 C 218.068 163.399,217.865 163.568,217.865 164.488 C 217.865 165.505,217.720 165.577,215.686 165.577 C 213.669 165.577,213.508 165.656,213.508 166.638 C 213.508 167.471,213.251 167.728,212.309 167.836 C 211.368 167.944,211.082 168.231,210.973 169.172 C 210.865 170.113,210.608 170.370,209.775 170.370 C 208.934 170.370,208.715 170.596,208.715 171.460 C 208.715 172.476,208.569 172.549,206.536 172.549 C 204.503 172.549,204.357 172.622,204.357 173.638 C 204.357 174.558,204.154 174.728,203.050 174.728 C 201.888 174.728,201.743 174.873,201.743 176.035 C 201.743 177.313,201.695 177.342,199.564 177.342 C 197.531 177.342,197.386 177.415,197.386 178.431 C 197.386 179.461,197.255 179.521,194.989 179.521 C 192.732 179.521,192.593 179.583,192.593 180.595 C 192.593 181.663,192.564 181.671,187.908 181.794 C 183.508 181.910,183.216 181.973,183.092 182.844 C 182.948 183.854,181.363 184.300,177.887 184.309 C 176.203 184.313,176.035 184.413,176.035 185.403 C 176.035 186.420,175.890 186.492,173.856 186.492 L 171.678 186.492 171.678 191.008 L 171.678 195.524 173.699 195.801 C 174.811 195.954,176.870 196.078,178.274 196.078 L 180.828 196.078 180.828 208.715 L 180.828 221.351 181.917 221.351 C 182.908 221.351,183.007 221.519,183.011 223.203 C 183.021 226.911,183.456 228.322,184.589 228.322 C 185.399 228.322,185.621 228.556,185.621 229.412 C 185.621 230.283,185.839 230.501,186.710 230.501 C 187.630 230.501,187.800 230.704,187.800 231.808 C 187.800 232.912,187.630 233.115,186.710 233.115 C 185.839 233.115,185.621 233.333,185.621 234.205 C 185.621 235.276,185.563 235.294,182.135 235.294 C 178.707 235.294,178.649 235.312,178.649 236.383 C 178.649 237.455,178.591 237.473,175.163 237.473 C 171.781 237.473,171.678 237.503,171.678 238.512 C 171.678 239.445,171.432 239.582,169.281 239.850 C 167.116 240.121,166.885 240.252,166.885 241.208 C 166.885 242.187,166.722 242.266,164.706 242.266 C 162.672 242.266,162.527 242.338,162.527 243.355 C 162.527 244.385,162.397 244.444,160.131 244.444 C 157.882 244.444,157.734 244.510,157.734 245.505 C 157.734 246.338,157.477 246.595,156.536 246.703 C 155.595 246.811,155.308 247.098,155.200 248.039 C 155.092 248.980,154.834 249.237,154.002 249.237 C 153.161 249.237,152.941 249.463,152.941 250.327 C 152.941 251.344,152.796 251.416,150.763 251.416 C 148.745 251.416,148.584 251.495,148.584 252.477 C 148.584 253.309,148.327 253.566,147.386 253.675 C 146.444 253.783,146.158 254.070,146.049 255.011 C 145.941 255.952,145.684 256.209,144.851 256.209 C 144.011 256.209,143.791 256.435,143.791 257.298 C 143.791 258.170,143.573 258.388,142.702 258.388 C 141.838 258.388,141.612 258.608,141.612 259.448 C 141.612 260.281,141.355 260.538,140.414 260.646 C 139.473 260.755,139.186 261.041,139.078 261.983 C 138.970 262.924,138.712 263.181,137.880 263.181 C 137.039 263.181,136.819 263.407,136.819 264.270 C 136.819 265.134,136.599 265.359,135.759 265.359 C 134.926 265.359,134.669 265.617,134.561 266.558 C 134.463 267.404,134.143 267.796,133.469 267.892 C 132.875 267.976,132.464 268.387,132.380 268.981 C 132.284 269.655,131.892 269.975,131.046 270.073 C 130.105 270.181,129.847 270.438,129.847 271.271 C 129.847 272.111,129.622 272.331,128.758 272.331 C 127.895 272.331,127.669 272.551,127.669 273.392 C 127.669 274.224,127.412 274.482,126.471 274.590 C 125.529 274.698,125.243 274.985,125.134 275.926 C 125.026 276.867,124.769 277.124,123.936 277.124 C 122.901 277.124,122.876 277.208,122.876 280.610 C 122.876 284.038,122.894 284.096,123.965 284.096 C 124.837 284.096,125.054 284.314,125.054 285.185 C 125.054 287.071,134.019 286.706,134.290 284.809 C 134.383 284.159,134.785 283.836,135.621 283.740 C 136.562 283.632,136.819 283.375,136.819 282.542 C 136.819 281.701,137.045 281.481,137.908 281.481 C 138.780 281.481,138.998 281.264,138.998 280.392 C 138.998 279.472,139.201 279.303,140.305 279.303 C 141.409 279.303,141.612 279.133,141.612 278.214 C 141.612 277.342,141.830 277.124,142.702 277.124 C 143.621 277.124,143.791 276.921,143.791 275.817 C 143.791 274.713,143.960 274.510,144.880 274.510 C 145.752 274.510,145.969 274.292,145.969 273.420 C 145.969 272.557,146.189 272.331,147.030 272.331 C 147.863 272.331,148.120 272.074,148.228 271.133 C 148.336 270.192,148.623 269.905,149.564 269.797 C 150.505 269.688,150.763 269.431,150.763 268.599 C 150.763 267.758,150.988 267.538,151.852 267.538 C 152.723 267.538,152.941 267.320,152.941 266.449 C 152.941 265.577,153.159 265.359,154.031 265.359 C 154.902 265.359,155.120 265.142,155.120 264.270 C 155.120 263.350,155.323 263.181,156.427 263.181 C 157.589 263.181,157.734 263.036,157.734 261.874 C 157.734 260.770,157.904 260.566,158.824 260.566 C 159.695 260.566,159.913 260.349,159.913 259.477 C 159.913 258.557,160.116 258.388,161.220 258.388 C 162.324 258.388,162.527 258.218,162.527 257.298 C 162.527 256.282,162.672 256.209,164.706 256.209 C 166.711 256.209,166.885 256.126,166.885 255.170 C 166.885 254.237,167.130 254.100,169.281 253.831 C 171.446 253.561,171.678 253.430,171.678 252.474 C 171.678 251.482,171.827 251.416,174.074 251.416 C 176.329 251.416,176.471 251.353,176.471 250.345 C 176.471 249.311,176.586 249.270,179.847 249.147 C 182.973 249.029,183.235 248.947,183.364 248.039 C 183.476 247.249,183.782 247.059,184.937 247.059 C 188.195 247.059,190.414 246.527,190.414 245.747 C 190.414 244.747,192.045 244.444,197.440 244.444 C 201.726 244.444,201.743 244.440,201.743 243.368 L 201.743 242.291 207.516 242.170 C 213.130 242.051,213.294 242.021,213.429 241.068 C 213.561 240.137,213.761 240.087,217.351 240.085 C 226.404 240.081,232.244 239.564,232.244 238.767 C 232.244 237.776,233.890 237.473,239.270 237.473 C 244.012 237.473,243.914 237.400,243.305 240.445 C 243.120 241.371,242.752 241.823,242.107 241.915 C 241.458 242.008,241.135 242.410,241.039 243.246 C 240.930 244.187,240.673 244.444,239.840 244.444 C 238.846 244.444,238.780 244.593,238.780 246.841 C 238.780 249.107,238.721 249.237,237.691 249.237 C 236.674 249.237,236.601 249.383,236.601 251.416 C 236.601 253.416,236.517 253.595,235.571 253.595 C 234.493 253.595,233.987 255.343,233.987 259.072 C 233.987 260.227,233.796 260.533,233.007 260.645 L 232.026 260.784 231.910 272.164 L 231.794 283.544 229.780 283.820 C 228.672 283.972,227.106 284.096,226.301 284.096 C 225.029 284.096,224.837 284.239,224.837 285.185 C 224.837 286.250,224.764 286.275,221.569 286.275 C 218.373 286.275,218.301 286.299,218.301 287.364 C 218.301 288.394,218.170 288.453,215.904 288.453 C 213.657 288.453,213.508 288.519,213.508 289.511 C 213.508 290.467,213.276 290.598,211.111 290.869 C 208.960 291.137,208.715 291.274,208.715 292.207 C 208.715 293.164,208.541 293.246,206.536 293.246 C 204.503 293.246,204.357 293.319,204.357 294.336 C 204.357 295.255,204.154 295.425,203.050 295.425 C 201.960 295.425,201.743 295.599,201.743 296.473 C 201.743 297.401,201.492 297.556,199.564 297.821 C 197.637 298.086,197.386 298.242,197.386 299.169 C 197.386 300.044,197.169 300.218,196.078 300.218 C 194.975 300.218,194.771 300.387,194.771 301.307 C 194.771 302.179,194.553 302.397,193.682 302.397 L 192.593 302.397 192.593 306.915 L 192.593 311.433 194.227 311.703 C 199.057 312.501,203.922 311.848,203.922 310.401 C 203.922 309.544,204.144 309.368,205.229 309.368 C 206.333 309.368,206.536 309.199,206.536 308.279 C 206.536 307.407,206.754 307.190,207.625 307.190 C 208.491 307.190,208.715 306.970,208.715 306.123 C 208.715 305.144,208.901 305.046,211.002 304.925 C 212.966 304.812,213.309 304.660,213.424 303.850 C 213.534 303.078,213.949 302.853,215.712 302.611 C 217.614 302.349,217.865 302.192,217.865 301.266 C 217.865 300.286,218.021 300.218,220.261 300.218 C 222.527 300.218,222.658 300.158,222.658 299.129 C 222.658 298.138,222.826 298.039,224.510 298.034 C 228.218 298.025,229.630 297.590,229.630 296.457 C 229.630 295.457,229.739 295.425,233.115 295.425 C 236.543 295.425,236.601 295.407,236.601 294.336 C 236.601 293.306,236.732 293.246,238.998 293.246 C 241.264 293.246,241.394 293.187,241.394 292.157 L 241.394 291.068 245.969 291.068 L 250.545 291.068 250.545 292.157 C 250.545 293.174,250.690 293.246,252.723 293.246 C 254.729 293.246,254.902 293.329,254.902 294.285 C 254.902 295.218,255.147 295.355,257.298 295.624 C 259.463 295.894,259.695 296.026,259.695 296.981 C 259.695 297.866,259.909 298.039,261.002 298.039 C 262.106 298.039,262.309 298.209,262.309 299.129 C 262.309 300.000,262.527 300.218,263.399 300.218 C 264.270 300.218,264.488 300.436,264.488 301.307 C 264.488 302.322,264.635 302.397,266.638 302.397 C 268.659 302.397,268.796 302.468,268.925 303.595 C 269.054 304.712,269.217 304.802,271.351 304.925 C 273.451 305.046,273.638 305.144,273.638 306.123 C 273.638 307.018,273.849 307.190,274.946 307.190 C 276.036 307.190,276.253 307.364,276.253 308.238 C 276.253 309.166,276.504 309.321,278.431 309.586 C 280.359 309.851,280.610 310.006,280.610 310.934 C 280.610 311.754,280.841 311.983,281.669 311.983 C 282.436 311.983,282.767 312.253,282.867 312.963 C 282.967 313.665,283.347 313.983,284.205 314.081 C 285.146 314.190,285.403 314.447,285.403 315.279 C 285.403 316.260,285.566 316.340,287.553 316.340 C 289.574 316.340,289.711 316.411,289.840 317.538 C 289.949 318.479,290.235 318.766,291.176 318.874 C 292.023 318.972,292.375 319.259,292.375 319.855 C 292.375 320.575,292.690 320.697,294.553 320.697 C 296.397 320.697,296.732 320.571,296.732 319.876 C 296.732 319.207,297.177 318.999,299.129 318.755 L 301.525 318.456 301.525 309.337 L 301.525 300.218 300.436 300.218 C 299.445 300.218,299.346 300.050,299.342 298.366 C 299.332 294.658,298.897 293.246,297.764 293.246 C 296.816 293.246,296.732 293.069,296.732 291.068 C 296.732 289.034,296.659 288.889,295.643 288.889 C 294.723 288.889,294.553 288.686,294.553 287.582 L 294.553 286.275 299.129 286.275 C 303.685 286.275,303.704 286.270,303.704 285.214 C 303.704 284.381,303.961 284.124,304.902 284.016 C 306.081 283.880,306.102 283.825,306.227 280.501 C 306.350 277.239,306.391 277.124,307.426 277.124 C 308.181 277.124,308.497 277.364,308.497 277.939 C 308.497 279.949,319.624 279.850,319.911 277.837 C 319.991 277.274,320.411 276.854,320.974 276.774 C 322.290 276.586,322.440 275.371,322.440 264.869 L 322.440 255.773 323.479 255.773 C 324.411 255.773,324.549 256.019,324.814 258.143 C 325.064 260.137,325.262 260.535,326.063 260.649 C 326.735 260.744,327.056 261.137,327.153 261.983 C 327.261 262.924,327.519 263.181,328.351 263.181 C 329.192 263.181,329.412 263.407,329.412 264.270 L 329.412 265.359 333.987 265.359 L 338.562 265.359 338.562 264.270 C 338.562 263.415,338.784 263.181,339.594 263.181 C 340.787 263.181,341.167 261.760,341.167 257.298 C 341.167 253.274,340.757 251.416,339.868 251.416 C 338.938 251.416,338.416 248.782,338.830 246.187 C 339.154 244.166,340.741 243.574,340.741 245.475 C 340.741 246.556,342.489 247.059,346.248 247.059 C 347.520 247.059,347.712 247.202,347.712 248.148 C 347.712 249.178,347.843 249.237,350.109 249.237 C 352.375 249.237,352.505 249.297,352.505 250.327 L 352.505 251.416 357.298 251.416 L 362.092 251.416 362.092 250.327 C 362.092 249.455,362.309 249.237,363.181 249.237 C 364.101 249.237,364.270 249.034,364.270 247.930 C 364.270 246.826,364.440 246.623,365.359 246.623 C 366.389 246.623,366.449 246.492,366.449 244.227 C 366.449 241.961,366.389 241.830,365.359 241.830 C 364.294 241.830,364.270 241.757,364.270 238.562 C 364.270 235.393,364.238 235.294,363.212 235.294 C 362.257 235.294,362.125 235.062,361.855 232.898 C 361.586 230.746,361.449 230.501,360.516 230.501 C 359.560 230.501,359.477 230.328,359.477 228.322 C 359.477 226.289,359.405 226.144,358.388 226.144 C 357.468 226.144,357.298 225.940,357.298 224.837 C 357.298 223.746,357.124 223.529,356.250 223.529 C 355.322 223.529,355.167 223.278,354.902 221.351 C 354.637 219.423,354.482 219.172,353.554 219.172 C 352.679 219.172,352.505 218.955,352.505 217.865 C 352.505 216.761,352.336 216.558,351.416 216.558 C 350.399 216.558,350.327 216.412,350.327 214.379 C 350.327 212.374,350.244 212.200,349.288 212.200 C 348.355 212.200,348.218 211.955,347.949 209.804 C 347.679 207.639,347.547 207.407,346.592 207.407 C 345.754 207.407,345.534 207.181,345.534 206.318 C 345.534 205.447,345.316 205.229,344.444 205.229 C 343.525 205.229,343.355 205.025,343.355 203.922 C 343.355 202.818,343.186 202.614,342.266 202.614 C 341.394 202.614,341.176 202.397,341.176 201.525 C 341.176 200.662,340.957 200.436,340.116 200.436 C 339.283 200.436,339.026 200.179,338.918 199.237 C 338.810 198.296,338.523 198.010,337.582 197.901 C 336.641 197.793,336.383 197.536,336.383 196.703 C 336.383 195.862,336.158 195.643,335.294 195.643 C 334.423 195.643,334.205 195.425,334.205 194.553 C 334.205 193.634,334.001 193.464,332.898 193.464 C 331.807 193.464,331.590 193.290,331.590 192.416 C 331.590 191.488,331.339 191.333,329.412 191.068 C 327.484 190.802,327.233 190.647,327.233 189.719 C 327.233 188.845,327.016 188.671,325.926 188.671 C 324.822 188.671,324.619 188.502,324.619 187.582 L 324.619 186.492 310.893 186.492 L 297.168 186.492 297.168 187.582 L 297.168 188.671 289.651 188.672 C 273.946 188.675,264.488 189.165,264.488 189.978 C 264.488 190.746,255.157 191.281,241.721 191.284 L 236.601 191.285 236.601 192.375 L 236.601 193.464 228.540 193.464 L 220.479 193.464 220.479 194.536 C 220.479 195.577,220.378 195.611,216.885 195.734 C 213.597 195.850,213.278 195.940,213.157 196.788 C 213.013 197.797,211.428 198.243,207.952 198.252 C 206.434 198.256,206.100 198.404,206.100 199.074 C 206.100 199.995,204.600 200.436,201.471 200.436 C 199.752 200.436,199.564 200.538,199.564 201.475 C 199.564 202.408,199.319 202.545,197.168 202.813 C 195.003 203.084,194.771 203.215,194.771 204.171 C 194.771 205.009,194.545 205.229,193.682 205.229 C 192.652 205.229,192.593 205.098,192.593 202.832 C 192.593 200.566,192.652 200.436,193.682 200.436 C 194.753 200.436,194.771 200.378,194.771 196.950 C 194.771 193.522,194.789 193.464,195.861 193.464 C 196.732 193.464,196.950 193.246,196.950 192.375 C 196.950 191.345,197.081 191.285,199.346 191.285 C 201.593 191.285,201.743 191.219,201.743 190.227 C 201.743 189.272,201.975 189.140,204.139 188.870 C 206.291 188.601,206.536 188.464,206.536 187.531 C 206.536 186.575,206.709 186.492,208.715 186.492 C 210.732 186.492,210.893 186.414,210.893 185.432 C 210.893 184.599,211.150 184.342,212.092 184.234 C 213.033 184.125,213.319 183.839,213.428 182.898 C 213.536 181.956,213.793 181.699,214.626 181.699 C 215.466 181.699,215.686 181.474,215.686 180.610 C 215.686 179.593,215.832 179.521,217.865 179.521 C 219.898 179.521,220.044 179.448,220.044 178.431 C 220.044 177.511,220.247 177.342,221.351 177.342 C 222.441 177.342,222.658 177.168,222.658 176.294 C 222.658 175.366,222.909 175.211,224.837 174.946 C 226.764 174.680,227.015 174.525,227.015 173.597 C 227.015 172.723,227.232 172.549,228.322 172.549 C 229.407 172.549,229.630 172.373,229.630 171.516 C 229.630 170.607,229.888 170.448,231.779 170.197 C 233.564 169.961,233.953 169.748,234.067 168.943 C 234.165 168.253,234.550 167.934,235.403 167.836 C 236.344 167.728,236.601 167.471,236.601 166.638 C 236.601 165.805,236.829 165.577,237.662 165.577 C 238.495 165.577,238.752 165.320,238.860 164.379 C 238.957 163.537,239.278 163.141,239.941 163.046 C 240.713 162.937,240.938 162.522,241.180 160.759 C 241.442 158.857,241.599 158.606,242.525 158.606 C 243.505 158.606,243.573 158.450,243.573 156.209 C 243.573 153.943,243.632 153.813,244.662 153.813 C 245.630 153.813,245.752 153.630,245.756 152.179 C 245.766 148.916,246.231 147.332,247.221 147.191 C 247.867 147.099,248.190 146.695,248.286 145.861 C 248.381 145.032,248.674 144.662,249.235 144.662 C 249.892 144.662,250.103 144.205,250.346 142.266 C 250.614 140.115,250.751 139.869,251.684 139.869 C 252.641 139.869,252.723 139.696,252.723 137.691 C 252.723 135.560,252.752 135.512,254.031 135.512 C 255.192 135.512,255.338 135.367,255.338 134.205 C 255.338 133.196,255.533 132.898,256.194 132.898 C 256.893 132.898,257.104 132.496,257.340 130.719 C 257.594 128.798,257.751 128.540,258.662 128.540 C 259.473 128.540,259.695 128.307,259.695 127.451 C 259.695 126.587,259.915 126.362,260.755 126.362 C 261.588 126.362,261.845 126.105,261.954 125.163 C 262.062 124.222,262.349 123.936,263.290 123.827 C 264.231 123.719,264.488 123.462,264.488 122.629 C 264.488 121.788,264.714 121.569,265.577 121.569 C 266.435 121.569,266.667 121.347,266.667 120.530 C 266.667 119.597,266.912 119.460,269.063 119.191 C 271.228 118.921,271.460 118.789,271.460 117.834 C 271.460 116.996,271.686 116.776,272.549 116.776 C 273.414 116.776,273.638 116.556,273.638 115.709 C 273.638 114.730,273.825 114.632,275.926 114.511 C 277.919 114.396,278.231 114.253,278.353 113.399 C 278.454 112.689,278.785 112.418,279.551 112.418 C 280.382 112.418,280.610 112.190,280.610 111.360 C 280.610 110.405,280.842 110.273,283.007 110.003 C 285.158 109.734,285.403 109.597,285.403 108.664 C 285.403 107.708,285.576 107.625,287.582 107.625 C 289.587 107.625,289.760 107.543,289.760 106.586 C 289.760 105.653,290.006 105.516,292.157 105.248 C 294.322 104.977,294.553 104.846,294.553 103.890 C 294.553 103.060,294.782 102.832,295.612 102.832 C 296.379 102.832,296.710 102.561,296.811 101.852 C 296.932 100.998,297.245 100.854,299.237 100.740 C 301.338 100.619,301.525 100.521,301.525 99.541 C 301.525 98.702,301.751 98.475,302.585 98.475 C 303.418 98.475,303.675 98.218,303.784 97.277 C 303.892 96.336,304.179 96.049,305.120 95.941 C 306.061 95.832,306.318 95.575,306.318 94.742 C 306.318 93.902,306.544 93.682,307.407 93.682 C 308.273 93.682,308.497 93.463,308.497 92.615 C 308.497 91.636,308.684 91.538,310.784 91.417 C 312.748 91.304,313.091 91.152,313.206 90.342 C 313.316 89.570,313.731 89.346,315.494 89.103 C 317.396 88.842,317.647 88.685,317.647 87.759 C 317.647 86.884,317.864 86.710,318.954 86.710 C 320.058 86.710,320.261 86.541,320.261 85.621 C 320.261 84.749,320.479 84.532,321.351 84.532 C 322.222 84.532,322.440 84.749,322.440 85.621 C 322.440 86.638,322.585 86.710,324.619 86.710 C 326.652 86.710,326.797 86.638,326.797 85.621 C 326.797 84.544,326.841 84.532,330.501 84.532 C 334.161 84.532,334.205 84.544,334.205 85.621 L 334.205 86.710 339.840 86.710 L 345.476 86.710 345.614 85.512 C 345.712 84.654,346.030 84.274,346.732 84.174 C 347.648 84.044,347.712 83.823,347.712 80.798 L 347.712 77.560 349.564 77.555 C 352.910 77.546,354.684 77.085,354.684 76.225 C 354.684 75.692,355.069 75.395,355.882 75.301 C 356.824 75.193,357.110 74.906,357.218 73.965 C 357.327 73.024,357.584 72.767,358.417 72.767 C 359.452 72.767,359.477 72.683,359.477 69.281 C 359.477 65.853,359.459 65.795,358.388 65.795 C 357.516 65.795,357.298 65.577,357.298 64.706 C 357.298 63.691,357.446 63.617,359.448 63.617 C 361.469 63.617,361.606 63.545,361.736 62.418 C 361.844 61.477,362.131 61.190,363.072 61.082 C 364.199 60.953,364.270 60.816,364.270 58.795 C 364.270 56.792,364.345 56.645,365.359 56.645 C 366.431 56.645,366.449 56.587,366.449 53.159 C 366.449 49.731,366.431 49.673,365.359 49.673 C 364.440 49.673,364.270 49.470,364.270 48.366 C 364.270 47.262,364.101 47.059,363.181 47.059 C 362.309 47.059,362.092 46.841,362.092 45.969 L 362.092 44.880 352.723 44.880 L 343.355 44.880 343.355 43.791 C 343.355 42.927,343.575 42.702,344.416 42.702 C 345.248 42.702,345.505 42.444,345.614 41.503 C 345.710 40.669,346.033 40.265,346.679 40.173 C 348.828 39.866,348.716 28.758,346.564 28.758 C 345.756 28.758,345.534 28.524,345.534 27.669 L 345.534 26.580 337.473 26.580 L 329.412 26.580 329.412 27.669 M329.412 41.612 C 329.412 42.532,329.208 42.702,328.105 42.702 C 327.011 42.702,326.797 42.874,326.797 43.761 C 326.797 44.527,326.527 44.858,325.817 44.959 C 324.879 45.092,324.831 45.300,324.713 49.782 L 324.589 54.466 325.693 54.466 C 326.581 54.466,326.797 54.680,326.797 55.556 L 326.797 56.645 332.680 56.645 L 338.562 56.645 338.562 63.617 L 338.562 70.588 337.473 70.588 C 336.601 70.588,336.383 70.806,336.383 71.678 C 336.383 72.549,336.166 72.767,335.294 72.767 C 334.423 72.767,334.205 72.549,334.205 71.678 L 334.205 70.588 329.630 70.588 L 325.054 70.588 325.054 71.678 C 325.054 72.707,324.924 72.767,322.658 72.767 C 320.392 72.767,320.261 72.707,320.261 71.678 L 320.261 70.588 315.686 70.588 L 311.111 70.588 311.111 71.678 C 311.111 72.707,310.980 72.767,308.715 72.767 C 306.449 72.767,306.318 72.707,306.318 71.678 C 306.318 70.758,306.115 70.588,305.011 70.588 L 303.704 70.588 303.704 64.706 L 303.704 58.824 302.614 58.824 C 301.549 58.824,301.525 58.751,301.525 55.556 C 301.525 52.360,301.501 52.288,300.436 52.288 C 299.406 52.288,299.346 52.157,299.346 49.891 C 299.346 47.625,299.406 47.495,300.436 47.495 C 301.307 47.495,301.525 47.712,301.525 48.584 C 301.525 49.455,301.743 49.673,302.614 49.673 C 303.472 49.673,303.704 49.894,303.704 50.712 C 303.704 51.645,303.949 51.782,306.100 52.051 C 308.265 52.321,308.497 52.453,308.497 53.408 C 308.497 54.293,308.710 54.466,309.804 54.466 C 310.908 54.466,311.111 54.636,311.111 55.556 C 311.111 56.621,311.184 56.645,314.379 56.645 C 317.574 56.645,317.647 56.621,317.647 55.556 C 317.647 54.636,317.850 54.466,318.954 54.466 C 320.048 54.466,320.261 54.293,320.261 53.407 C 320.261 52.641,320.532 52.310,321.242 52.209 C 322.195 52.074,322.226 51.910,322.344 46.296 L 322.465 40.523 325.939 40.523 C 329.353 40.523,329.412 40.541,329.412 41.612 M206.536 106.536 C 206.536 107.456,206.333 107.625,205.229 107.625 C 204.125 107.625,203.922 107.795,203.922 108.715 C 203.922 109.586,203.704 109.804,202.832 109.804 C 201.802 109.804,201.743 109.935,201.743 112.200 C 201.743 114.466,201.802 114.597,202.832 114.597 C 203.687 114.597,203.922 114.819,203.922 115.627 C 203.922 116.826,206.204 117.353,209.477 116.911 C 211.064 116.697,211.329 116.513,211.329 115.629 C 211.329 114.819,211.563 114.597,212.418 114.597 C 213.606 114.597,213.847 113.006,213.228 109.259 C 212.959 107.632,212.949 107.625,210.836 107.625 C 208.864 107.625,208.715 107.549,208.715 106.536 C 208.715 105.664,208.497 105.447,207.625 105.447 C 206.754 105.447,206.536 105.664,206.536 106.536 M143.791 121.569 C 143.791 123.602,143.718 123.747,142.702 123.747 C 141.782 123.747,141.612 123.951,141.612 125.054 C 141.612 126.158,141.782 126.362,142.702 126.362 C 143.718 126.362,143.791 126.507,143.791 128.540 L 143.791 130.719 147.277 130.719 C 150.704 130.719,150.763 130.701,150.763 129.630 C 150.763 128.774,150.984 128.540,151.796 128.540 C 153.015 128.540,153.583 126.278,153.109 123.312 C 152.874 121.846,152.665 121.569,151.796 121.569 C 150.984 121.569,150.763 121.335,150.763 120.479 C 150.763 119.408,150.704 119.390,147.277 119.390 L 143.791 119.390 143.791 121.569 M296.732 201.525 C 296.732 202.397,296.514 202.614,295.643 202.614 C 294.613 202.614,294.553 202.745,294.553 205.011 C 294.553 207.242,294.482 207.407,293.520 207.407 C 292.611 207.407,292.453 207.666,292.202 209.557 C 291.965 211.342,291.752 211.730,290.947 211.845 C 290.107 211.964,289.961 212.286,289.847 214.270 C 289.726 216.371,289.628 216.558,288.648 216.558 C 287.646 216.558,287.582 216.702,287.582 218.954 C 287.582 221.206,287.517 221.351,286.515 221.351 C 285.536 221.351,285.438 221.538,285.317 223.638 C 285.204 225.602,285.052 225.945,284.242 226.060 C 283.470 226.170,283.246 226.585,283.003 228.348 C 282.741 230.250,282.584 230.501,281.658 230.501 C 280.831 230.501,280.610 230.730,280.610 231.590 C 280.610 232.620,280.479 232.680,278.214 232.680 C 275.948 232.680,275.817 232.620,275.817 231.590 C 275.817 230.519,275.759 230.501,272.331 230.501 C 268.903 230.501,268.845 230.483,268.845 229.412 C 268.845 228.416,268.682 228.322,266.939 228.322 C 263.897 228.322,262.309 227.876,262.309 227.020 C 262.309 225.978,259.970 225.708,250.950 225.708 C 243.694 225.708,243.632 225.700,243.494 224.728 C 243.289 223.280,239.071 223.236,238.865 224.679 C 238.738 225.571,238.435 225.624,231.784 225.927 C 225.570 226.210,224.837 226.324,224.837 227.008 C 224.837 228.058,222.959 228.312,215.142 228.318 L 208.715 228.322 208.715 229.401 L 208.715 230.479 201.852 230.599 C 195.108 230.717,194.987 230.736,194.850 231.699 C 194.741 232.467,194.427 232.680,193.403 232.680 C 191.587 232.680,191.740 230.792,193.573 230.581 C 194.907 230.428,195.064 229.378,194.798 222.364 L 194.680 219.239 195.924 219.097 C 196.914 218.983,197.196 218.709,197.306 217.756 C 197.435 216.629,197.572 216.558,199.593 216.558 C 201.580 216.558,201.743 216.477,201.743 215.497 C 201.743 214.664,202.000 214.407,202.941 214.299 C 203.799 214.200,204.179 213.883,204.279 213.181 C 204.402 212.316,204.670 212.200,206.566 212.200 C 208.536 212.200,208.715 212.114,208.715 211.168 C 208.715 210.017,210.126 209.600,214.052 209.591 C 215.962 209.586,216.122 209.503,216.122 208.510 L 216.122 207.433 221.678 207.311 C 227.065 207.193,227.237 207.160,227.372 206.209 C 227.509 205.247,227.621 205.229,233.521 205.229 C 241.215 205.229,243.573 204.923,243.573 203.927 C 243.573 202.838,247.646 202.620,268.083 202.617 L 285.403 202.614 285.403 201.525 L 285.403 200.436 291.068 200.436 L 296.732 200.436 296.732 201.525 M325.140 202.890 C 326.345 203.090,326.784 203.390,326.883 204.084 C 326.975 204.730,327.379 205.053,328.214 205.149 C 329.155 205.257,329.412 205.514,329.412 206.347 C 329.412 207.180,329.639 207.407,330.472 207.407 C 331.305 207.407,331.562 207.665,331.670 208.606 C 331.767 209.447,332.089 209.844,332.751 209.938 C 333.523 210.048,333.748 210.463,333.990 212.226 C 334.252 214.128,334.409 214.379,335.335 214.379 C 336.163 214.379,336.383 214.608,336.383 215.468 C 336.383 216.334,336.603 216.558,337.450 216.558 C 338.429 216.558,338.527 216.745,338.648 218.845 C 338.763 220.838,338.906 221.151,339.760 221.272 C 340.461 221.372,340.741 221.705,340.741 222.441 C 340.741 223.241,341.009 223.502,341.939 223.609 C 343.057 223.738,343.146 223.901,343.269 226.035 C 343.388 228.099,343.499 228.322,344.411 228.322 C 345.295 228.322,345.458 228.596,345.711 230.501 C 345.946 232.279,346.157 232.680,346.856 232.680 C 347.517 232.680,347.712 232.978,347.712 233.987 C 347.712 235.091,347.543 235.294,346.623 235.294 C 345.768 235.294,345.534 235.072,345.534 234.262 C 345.534 233.129,344.122 232.694,340.414 232.685 C 338.730 232.680,338.562 232.581,338.562 231.590 C 338.562 230.561,338.431 230.501,336.166 230.501 C 333.900 230.501,333.769 230.442,333.769 229.412 C 333.769 228.341,333.711 228.322,330.283 228.322 C 326.855 228.322,326.797 228.341,326.797 229.412 C 326.797 230.283,326.580 230.501,325.708 230.501 C 324.837 230.501,324.619 230.719,324.619 231.590 C 324.619 232.462,324.401 232.680,323.529 232.680 C 322.658 232.680,322.440 232.462,322.440 231.590 C 322.440 230.730,322.219 230.501,321.392 230.501 C 320.466 230.501,320.309 230.250,320.047 228.348 C 319.805 226.585,319.580 226.170,318.808 226.060 C 318.145 225.966,317.824 225.569,317.727 224.728 C 317.619 223.787,317.362 223.529,316.529 223.529 C 315.641 223.529,315.468 223.317,315.468 222.222 C 315.468 221.132,315.294 220.915,314.420 220.915 C 313.492 220.915,313.337 220.664,313.072 218.736 C 312.807 216.809,312.652 216.558,311.724 216.558 C 310.896 216.558,310.675 216.329,310.675 215.468 C 310.675 214.597,310.458 214.379,309.586 214.379 C 308.715 214.379,308.497 214.161,308.497 213.290 C 308.497 212.299,308.665 212.200,310.349 212.196 C 314.891 212.184,315.468 211.886,315.468 209.558 C 315.468 207.599,315.545 207.456,316.667 207.327 C 317.525 207.229,317.904 206.911,318.004 206.209 C 318.105 205.500,318.436 205.229,319.202 205.229 C 320.089 205.229,320.261 205.015,320.261 203.922 C 320.261 202.491,321.341 202.262,325.140 202.890 M301.525 224.619 C 301.525 225.490,301.743 225.708,302.614 225.708 C 303.534 225.708,303.704 225.911,303.704 227.015 C 303.704 228.177,303.849 228.322,305.011 228.322 C 306.173 228.322,306.318 228.468,306.318 229.630 C 306.318 230.639,306.513 230.937,307.175 230.937 C 307.873 230.937,308.084 231.338,308.320 233.115 C 308.575 235.036,308.731 235.294,309.642 235.294 C 310.637 235.294,310.675 235.414,310.675 238.562 C 310.675 241.757,310.651 241.830,309.586 241.830 L 308.497 241.830 308.497 250.109 L 308.497 258.388 307.407 258.388 C 306.536 258.388,306.318 258.170,306.318 257.298 C 306.318 256.379,306.115 256.209,305.011 256.209 C 303.921 256.209,303.704 256.035,303.704 255.161 C 303.704 254.233,303.453 254.078,301.525 253.813 C 299.597 253.548,299.346 253.392,299.346 252.465 C 299.346 251.637,299.117 251.416,298.257 251.416 C 297.386 251.416,297.168 251.198,297.168 250.327 C 297.168 249.407,296.964 249.237,295.861 249.237 C 294.699 249.237,294.553 249.092,294.553 247.930 C 294.553 246.826,294.384 246.623,293.464 246.623 C 292.593 246.623,292.375 246.405,292.375 245.534 C 292.375 244.662,292.157 244.444,291.285 244.444 C 289.698 244.444,289.595 240.233,291.176 240.009 C 292.031 239.887,292.174 239.575,292.289 237.582 C 292.410 235.481,292.507 235.294,293.487 235.294 C 294.489 235.294,294.553 235.150,294.553 232.898 C 294.553 230.651,294.619 230.501,295.611 230.501 C 296.567 230.501,296.698 230.269,296.969 228.105 C 297.238 225.953,297.375 225.708,298.307 225.708 C 299.125 225.708,299.346 225.476,299.346 224.619 C 299.346 223.747,299.564 223.529,300.436 223.529 C 301.307 223.529,301.525 223.747,301.525 224.619 M263.024 240.087 C 264.295 240.087,264.488 240.231,264.488 241.176 C 264.488 242.242,264.561 242.266,267.756 242.266 L 271.024 242.266 271.024 244.387 C 271.024 246.723,270.443 247.041,266.152 247.054 C 264.823 247.058,264.525 247.226,264.409 248.039 C 264.277 248.974,264.060 249.025,259.804 249.144 C 255.381 249.267,255.338 249.278,255.338 250.342 C 255.338 251.353,255.198 251.416,252.941 251.416 C 250.675 251.416,250.545 251.357,250.545 250.327 C 250.545 249.455,250.763 249.237,251.634 249.237 C 252.554 249.237,252.723 249.034,252.723 247.930 C 252.723 246.840,252.897 246.623,253.772 246.623 C 254.699 246.623,254.855 246.372,255.120 244.444 C 255.385 242.517,255.540 242.266,256.468 242.266 C 257.352 242.266,257.516 242.052,257.516 240.899 L 257.516 239.533 259.538 239.810 C 260.650 239.962,262.218 240.087,263.024 240.087 M271.460 261.896 L 271.460 263.226 269.172 263.095 C 265.500 262.883,265.373 260.566,269.034 260.566 C 271.448 260.566,271.460 260.573,271.460 261.896 M250.545 266.408 C 250.545 267.334,250.796 267.491,252.698 267.752 C 254.461 267.995,254.876 268.220,254.985 268.992 C 255.080 269.654,255.476 269.976,256.318 270.073 C 257.259 270.181,257.516 270.438,257.516 271.271 C 257.516 272.253,257.677 272.331,259.695 272.331 C 261.728 272.331,261.874 272.404,261.874 273.420 C 261.874 274.340,262.077 274.510,263.181 274.510 C 264.271 274.510,264.488 274.684,264.488 275.558 C 264.488 276.486,264.739 276.641,266.667 276.906 C 268.594 277.171,268.845 277.327,268.845 278.254 C 268.845 279.129,269.062 279.303,270.153 279.303 C 271.256 279.303,271.460 279.472,271.460 280.392 C 271.460 281.264,271.678 281.481,272.549 281.481 C 273.469 281.481,273.638 281.685,273.638 282.789 C 273.638 283.893,273.808 284.096,274.728 284.096 C 275.599 284.096,275.817 284.314,275.817 285.185 C 275.817 286.041,276.039 286.275,276.849 286.275 C 277.982 286.275,278.417 287.686,278.427 291.394 C 278.431 293.078,278.530 293.246,279.521 293.246 C 280.392 293.246,280.610 293.464,280.610 294.336 C 280.610 295.207,280.392 295.425,279.521 295.425 C 278.649 295.425,278.431 295.207,278.431 294.336 C 278.431 293.306,278.301 293.246,276.035 293.246 C 273.769 293.246,273.638 293.187,273.638 292.157 C 273.638 291.293,273.419 291.068,272.578 291.068 C 271.745 291.068,271.488 290.810,271.380 289.869 C 271.251 288.752,271.088 288.662,268.954 288.539 C 266.854 288.418,266.667 288.320,266.667 287.341 C 266.667 286.494,266.443 286.275,265.577 286.275 C 264.720 286.275,264.488 286.053,264.488 285.235 C 264.488 284.303,264.243 284.166,262.092 283.897 C 259.927 283.626,259.695 283.495,259.695 282.539 C 259.695 281.548,259.545 281.481,257.298 281.481 C 255.033 281.481,254.902 281.422,254.902 280.392 C 254.902 279.327,254.829 279.303,251.634 279.303 C 248.439 279.303,248.366 279.279,248.366 278.214 C 248.366 277.184,248.235 277.124,245.969 277.124 L 243.573 277.124 243.573 271.242 L 243.573 265.359 247.059 265.359 C 250.450 265.359,250.545 265.388,250.545 266.408 M301.525 271.242 C 301.525 272.113,301.307 272.331,300.436 272.331 C 299.564 272.331,299.346 272.113,299.346 271.242 C 299.346 270.370,299.564 270.153,300.436 270.153 C 301.307 270.153,301.525 270.370,301.525 271.242 " stroke="none" fill="#000000" fill-rule="evenodd"></path></g></svg>