<svg id="svg" xmlns="http://www.w3.org/2000/svg" xmlns:xlink="http://www.w3.org/1999/xlink" width="400" height="222.68578878748372" viewBox="0, 0, 400,222.68578878748372"><g id="svgg"><path id="path0" d="M117.059 35.496 C 116.641 36.173,116.316 35.890,120.747 38.712 C 122.764 39.996,124.808 41.441,125.289 41.921 C 125.769 42.402,127.126 43.135,128.305 43.551 C 129.483 43.966,131.077 44.754,131.847 45.301 C 132.617 45.848,134.158 46.675,135.273 47.140 C 139.421 48.870,151.760 56.860,151.760 57.816 C 151.760 58.402,157.764 61.017,159.108 61.017 C 159.878 61.017,160.125 60.779,159.916 60.235 C 159.728 59.746,159.920 59.452,160.425 59.452 C 162.012 59.452,160.763 58.152,158.180 57.116 C 156.736 56.537,154.289 54.931,152.742 53.548 C 150.150 51.232,147.860 50.099,142.373 48.419 C 141.369 48.112,139.961 47.449,139.244 46.945 C 138.527 46.442,137.353 45.853,136.636 45.637 C 135.919 45.420,134.042 44.477,132.464 43.541 C 130.887 42.604,128.734 41.401,127.681 40.867 C 126.628 40.333,124.516 38.937,122.987 37.765 C 120.021 35.490,117.629 34.574,117.059 35.496 M150.196 53.455 C 150.869 54.172,151.308 54.759,151.170 54.759 C 151.032 54.759,150.124 54.172,149.153 53.455 C 148.151 52.716,147.729 52.151,148.178 52.151 C 148.614 52.151,149.522 52.738,150.196 53.455 M247.458 62.161 C 241.880 64.387,236.319 67.700,232.684 70.962 C 227.816 75.330,221.162 76.242,215.469 73.322 C 214.706 72.930,211.160 72.213,207.590 71.728 C 204.020 71.244,200.383 70.467,199.507 70.003 C 198.141 69.279,195.029 69.127,177.667 68.937 L 157.420 68.715 155.104 69.906 C 153.831 70.561,152.528 71.411,152.210 71.794 C 151.893 72.177,151.244 72.490,150.769 72.490 C 150.295 72.490,149.443 72.805,148.877 73.191 C 145.116 75.752,140.474 76.816,134.259 76.542 L 128.186 76.274 125.241 78.729 C 120.854 82.385,119.631 84.482,121.643 84.895 C 122.149 85.000,122.555 84.774,122.555 84.388 C 122.555 83.532,124.505 81.390,127.047 79.451 C 128.913 78.027,129.082 77.999,134.892 78.160 C 141.218 78.335,143.773 77.785,148.471 75.240 C 149.673 74.588,151.140 74.055,151.730 74.055 C 152.320 74.055,152.803 73.840,152.803 73.578 C 152.803 73.316,153.918 72.472,155.280 71.704 L 157.757 70.307 177.575 70.536 C 194.566 70.732,197.670 70.888,199.336 71.629 C 200.405 72.105,203.954 72.845,207.222 73.273 C 210.491 73.702,214.028 74.413,215.083 74.854 C 216.138 75.294,218.926 75.892,221.278 76.183 C 225.425 76.694,231.021 78.115,231.551 78.792 C 232.269 79.707,235.382 80.834,237.192 80.834 C 238.315 80.834,241.671 81.676,244.650 82.705 C 247.628 83.734,251.591 84.989,253.455 85.493 C 255.319 85.997,258.757 87.252,261.095 88.282 C 263.432 89.311,266.365 90.421,267.613 90.749 C 269.682 91.292,275.536 93.959,285.700 98.987 C 287.803 100.028,290.312 101.752,291.277 102.820 C 292.241 103.887,293.630 105.154,294.364 105.635 C 295.098 106.116,295.992 107.041,296.350 107.692 C 296.708 108.343,298.233 110.695,299.739 112.919 C 301.245 115.143,302.477 117.137,302.477 117.349 C 302.477 117.561,302.829 118.026,303.259 118.383 C 304.186 119.152,304.421 131.125,303.520 131.682 C 303.233 131.859,302.999 132.318,302.999 132.701 C 302.999 133.915,298.154 138.536,295.176 140.161 C 291.483 142.176,288.829 142.751,279.270 143.606 C 267.725 144.638,263.885 146.864,263.885 152.527 C 263.885 154.493,262.778 154.573,244.653 153.919 C 219.564 153.013,204.526 151.167,197.419 148.121 C 196.120 147.564,192.180 146.398,188.663 145.529 C 181.238 143.695,178.600 142.738,171.082 139.151 C 168.056 137.707,164.477 136.223,163.129 135.853 C 161.781 135.483,160.019 134.710,159.213 134.137 C 157.885 133.191,156.378 132.676,152.151 131.724 C 151.086 131.484,150.717 131.087,150.717 130.178 C 150.717 126.491,145.447 125.010,139.244 126.952 C 135.250 128.203,128.579 130.724,126.723 131.684 C 124.597 132.783,116.103 132.588,107.953 131.252 C 105.228 130.806,101.121 130.172,98.827 129.843 C 91.276 128.762,89.575 128.289,90.262 127.461 C 90.597 127.058,91.166 126.728,91.526 126.728 C 92.482 126.728,96.574 122.609,96.208 122.016 C 95.715 121.218,95.267 121.402,93.337 123.193 C 89.109 127.118,87.552 127.774,85.644 126.437 C 83.196 124.723,85.742 120.894,90.482 119.161 C 92.945 118.261,96.348 116.416,101.695 113.085 C 107.182 109.667,109.910 105.581,107.823 103.908 C 107.464 103.620,102.879 103.277,97.633 103.146 C 86.842 102.875,86.242 102.664,88.755 100.024 C 91.010 97.656,95.757 96.041,102.374 95.393 C 105.186 95.117,108.471 94.529,109.675 94.087 C 110.879 93.645,113.038 92.953,114.472 92.550 C 116.440 91.997,124.046 88.529,126.171 87.215 C 126.296 87.138,126.111 86.789,125.762 86.440 C 125.263 85.941,124.260 86.274,121.076 87.993 C 118.848 89.197,115.747 90.531,114.184 90.960 C 112.621 91.388,110.404 92.075,109.257 92.487 C 108.110 92.899,105.880 93.373,104.302 93.540 L 101.434 93.845 104.270 93.042 C 105.829 92.601,107.707 91.824,108.442 91.317 C 109.177 90.809,110.893 89.865,112.256 89.218 C 113.896 88.440,114.733 87.716,114.733 87.077 C 114.733 85.665,113.828 85.338,113.195 86.521 C 112.894 87.083,112.123 87.710,111.481 87.914 C 110.839 88.118,109.451 88.855,108.396 89.553 C 106.187 91.015,100.457 92.652,95.176 93.331 C 93.168 93.589,90.235 94.181,88.657 94.646 C 84.433 95.891,62.961 96.902,59.298 96.028 C 52.446 94.393,40.577 93.536,40.278 94.654 C 40.199 94.951,41.997 95.332,44.450 95.537 C 51.026 96.088,55.808 96.771,58.513 97.545 C 62.313 98.633,84.872 97.496,90.135 95.952 C 92.239 95.335,94.065 94.934,94.192 95.061 C 94.319 95.189,93.367 95.589,92.076 95.950 C 88.168 97.044,84.318 101.736,85.971 103.390 C 86.862 104.280,91.350 104.744,99.478 104.786 C 106.287 104.821,106.910 104.903,106.910 105.768 C 106.910 108.029,98.915 113.530,88.657 118.326 C 83.147 120.903,81.007 125.687,84.482 127.664 C 85.340 128.153,86.039 128.670,86.035 128.814 C 85.998 130.042,73.054 136.115,70.473 136.115 C 69.833 136.115,68.676 136.438,67.901 136.833 C 67.127 137.228,64.967 137.920,63.103 138.370 C 61.239 138.820,58.657 139.529,57.366 139.946 C 56.076 140.363,52.924 141.255,50.362 141.929 C 45.750 143.143,38.718 146.919,35.463 149.931 C 34.746 150.595,33.303 151.571,32.257 152.101 C 31.211 152.630,28.373 154.826,25.951 156.979 C 23.529 159.132,20.221 161.564,18.602 162.383 C 15.803 163.799,15.185 164.800,17.110 164.796 C 18.657 164.793,25.804 159.697,29.767 155.770 C 30.581 154.964,32.203 153.790,33.371 153.162 C 34.540 152.535,36.486 151.253,37.696 150.315 C 42.416 146.656,45.590 144.966,50.225 143.643 C 52.862 142.891,56.662 141.813,58.670 141.247 C 60.678 140.682,64.156 139.647,66.399 138.949 C 68.641 138.251,70.807 137.679,71.212 137.679 C 72.945 137.679,84.372 132.684,85.528 131.421 C 86.242 130.641,88.736 129.322,89.087 129.539 C 89.875 130.026,100.282 131.943,102.142 131.943 C 103.187 131.943,105.774 132.305,107.892 132.747 C 110.009 133.188,114.181 133.716,117.163 133.920 L 122.586 134.289 118.529 137.215 C 116.298 138.824,113.416 140.670,112.125 141.316 C 110.834 141.963,109.074 143.019,108.214 143.662 C 104.744 146.257,101.109 147.730,99.843 147.052 C 98.426 146.294,97.191 146.820,98.025 147.826 C 98.782 148.738,98.394 149.004,90.743 152.812 C 87.158 154.596,83.520 156.575,82.660 157.210 C 81.799 157.845,79.335 159.381,77.184 160.624 C 69.815 164.881,57.888 177.180,57.888 180.522 C 57.888 182.285,58.303 182.347,60.881 180.965 C 61.951 180.391,63.100 179.922,63.434 179.922 C 63.768 179.922,66.118 178.432,68.657 176.610 C 71.195 174.789,74.072 172.886,75.049 172.382 C 76.027 171.878,77.904 170.468,79.221 169.247 C 80.539 168.027,82.673 166.371,83.963 165.568 C 85.254 164.764,87.385 163.030,88.699 161.714 C 90.013 160.398,92.287 158.318,93.753 157.091 C 95.218 155.863,97.077 153.798,97.883 152.502 C 99.083 150.572,100.104 149.770,103.520 148.075 C 109.015 145.348,115.717 141.179,122.276 136.407 L 125.387 134.144 134.010 133.837 C 138.753 133.669,144.196 133.382,146.105 133.201 L 149.576 132.870 149.834 135.927 C 149.977 137.608,150.475 144.599,150.941 151.464 C 151.414 158.420,152.043 164.249,152.360 164.632 C 153.321 165.790,153.983 165.416,153.610 163.927 C 153.418 163.162,152.910 157.236,152.481 150.759 C 152.052 144.282,151.575 137.751,151.420 136.245 C 151.062 132.767,154.074 132.511,158.572 135.638 C 159.306 136.149,160.597 136.729,161.440 136.927 C 162.283 137.125,166.375 138.816,170.535 140.685 C 179.360 144.651,182.494 145.791,187.484 146.851 C 189.492 147.278,193.481 148.426,196.349 149.404 C 207.873 153.331,217.409 154.519,245.205 155.492 C 264.223 156.158,265.450 156.026,265.450 153.325 C 265.450 147.887,268.427 146.191,279.775 145.165 C 288.309 144.394,292.616 143.447,295.598 141.687 C 296.656 141.061,298.226 140.197,299.085 139.766 C 299.944 139.336,301.117 138.228,301.692 137.305 C 302.267 136.382,303.149 135.486,303.651 135.314 C 304.176 135.134,304.563 134.476,304.563 133.764 C 304.563 133.083,304.798 132.381,305.085 132.203 C 305.822 131.748,305.756 119.642,305.008 118.219 C 300.218 109.100,292.325 100.362,286.175 97.369 C 274.714 91.792,269.942 89.660,267.904 89.203 C 266.656 88.923,263.621 87.768,261.161 86.637 C 258.701 85.506,255.315 84.299,253.637 83.955 C 249.493 83.105,248.333 82.363,251.760 82.753 C 253.566 82.959,254.498 82.874,254.498 82.502 C 254.498 81.615,254.069 81.496,247.448 80.553 C 244.011 80.064,240.378 79.312,239.374 78.883 C 238.370 78.454,236.853 77.947,236.003 77.756 L 234.457 77.409 237.307 75.706 C 246.838 70.006,250.469 67.342,252.710 64.404 C 255.260 61.060,252.824 60.020,247.458 62.161 M248.716 65.850 C 244.281 70.046,233.624 76.671,231.338 76.654 C 229.331 76.640,228.651 75.811,230.047 75.081 C 230.731 74.724,232.699 73.222,234.420 71.744 C 238.132 68.555,244.021 65.006,246.936 64.201 C 248.083 63.884,249.374 63.394,249.804 63.111 C 252.292 61.477,251.662 63.063,248.716 65.850 M320.041 87.948 C 316.937 88.344,313.761 88.998,312.982 89.401 C 312.204 89.803,310.637 90.301,309.500 90.506 C 308.362 90.712,306.962 91.134,306.389 91.444 C 305.815 91.754,304.224 92.134,302.853 92.288 C 301.483 92.442,300.363 92.803,300.365 93.090 C 300.371 93.868,303.900 94.028,305.784 93.336 C 306.690 93.004,308.605 92.421,310.039 92.041 C 311.473 91.661,313.585 91.013,314.733 90.600 C 315.880 90.186,319.949 89.540,323.776 89.163 L 330.733 88.478 332.027 90.132 C 333.263 91.711,334.811 92.351,334.811 91.283 C 334.811 91.006,334.083 89.950,333.192 88.936 C 331.303 86.784,329.943 86.682,320.041 87.948 M328.290 110.043 C 327.723 110.959,329.058 111.074,341.851 111.210 L 354.368 111.343 349.842 113.537 C 346.667 115.076,343.869 115.982,340.469 116.572 C 337.803 117.034,334.325 117.891,332.739 118.476 C 331.154 119.062,329.035 119.695,328.031 119.883 C 327.027 120.072,326.206 120.457,326.206 120.739 C 326.206 121.781,329.253 121.552,332.456 120.269 C 334.271 119.543,338.013 118.586,340.773 118.141 C 347.624 117.039,358.580 111.792,357.541 110.111 C 357.060 109.332,328.770 109.267,328.290 110.043 M148.199 128.634 C 150.122 130.374,149.431 131.268,145.893 131.620 C 138.737 132.333,129.016 132.503,130.378 131.891 C 138.412 128.283,146.232 126.854,148.199 128.634 M289.711 146.007 C 289.116 146.969,290.407 147.571,293.090 147.582 C 298.797 147.607,312.576 150.630,322.816 154.105 C 325.828 155.127,331.760 156.903,335.998 158.052 C 351.820 162.341,351.621 162.391,317.445 162.712 C 299.470 162.881,289.700 163.156,289.700 163.494 C 289.700 164.312,342.150 164.504,345.632 163.699 C 351.273 162.396,348.669 159.873,338.983 157.255 C 335.111 156.208,328.774 154.319,324.902 153.056 C 321.030 151.793,316.571 150.416,314.993 149.996 C 312.172 149.244,312.234 149.237,318.774 149.532 C 323.717 149.756,325.424 149.675,325.424 149.216 C 325.424 148.300,324.960 148.234,314.472 147.645 C 309.166 147.347,304.003 146.856,302.999 146.553 C 299.965 145.638,290.187 145.236,289.711 146.007 M184.876 150.718 C 184.698 151.005,185.153 151.469,185.888 151.748 C 186.622 152.027,187.223 152.641,187.223 153.113 C 187.223 153.584,188.515 156.667,190.093 159.963 C 191.672 163.259,193.346 167.270,193.813 168.876 C 195.695 175.352,200.558 184.615,202.074 184.615 C 202.904 184.615,202.031 177.535,200.917 175.228 C 199.985 173.298,197.762 164.093,196.732 157.905 C 196.479 156.382,195.315 155.075,194.863 155.805 C 194.712 156.050,194.810 157.176,195.082 158.308 C 195.353 159.439,196.176 163.299,196.910 166.884 C 197.645 170.469,198.816 174.564,199.514 175.982 C 200.212 177.401,200.774 179.161,200.764 179.894 C 200.739 181.663,197.572 174.996,195.576 168.970 C 194.768 166.532,192.910 162.044,191.447 158.996 C 189.984 155.949,188.787 153.091,188.787 152.645 C 188.787 150.861,185.721 149.351,184.876 150.718 M94.885 153.885 C 93.959 155.053,92.004 156.902,90.539 157.993 C 89.074 159.084,87.288 160.623,86.571 161.413 C 85.854 162.203,83.742 163.844,81.877 165.059 C 80.013 166.273,77.901 167.907,77.184 168.690 C 76.467 169.472,75.176 170.475,74.316 170.918 C 73.455 171.361,70.874 173.072,68.579 174.719 C 66.284 176.366,63.290 178.198,61.926 178.790 L 59.445 179.866 60.031 178.721 C 60.665 177.482,63.701 174.165,66.979 171.130 C 68.107 170.085,70.102 168.141,71.412 166.810 C 72.722 165.478,74.381 164.094,75.098 163.734 C 75.815 163.374,78.253 161.882,80.516 160.418 C 84.449 157.874,95.221 151.943,96.132 151.819 C 96.372 151.787,95.810 152.716,94.885 153.885 M238.693 167.217 C 238.028 167.882,238.953 168.449,240.705 168.449 C 242.991 168.449,252.440 172.673,255.240 174.946 C 257.372 176.677,263.528 179.972,265.971 180.690 C 266.688 180.900,270.556 182.371,274.566 183.957 C 285.525 188.291,300.391 191.820,300.391 190.086 C 300.391 189.383,295.717 184.921,293.872 183.864 C 283.405 177.865,279.017 175.764,275.438 175.038 C 271.959 174.332,267.473 172.692,261.386 169.901 C 259.104 168.855,257.367 168.971,257.757 170.144 C 257.877 170.502,258.424 170.866,258.974 170.953 C 259.524 171.039,260.443 171.319,261.017 171.575 C 267.122 174.295,271.836 175.937,275.881 176.753 C 280.592 177.702,297.641 187.539,296.519 188.661 C 295.992 189.189,282.552 185.427,277.296 183.280 C 274.079 181.966,269.922 180.355,268.057 179.699 C 263.643 178.145,258.381 175.482,255.962 173.577 C 251.210 169.832,240.151 165.759,238.693 167.217 " stroke="none" fill="#000000" fill-rule="evenodd"></path></g></svg>